<svg width="28" height="26" viewBox="0 0 28 26" fill="none" xmlns="http://www.w3.org/2000/svg">
<g clip-path="url(#clip0_59_2316)" filter="url(#filter0_d_59_2316)">
<path d="M22.7835 5.35016C22.6845 4.95467 22.4829 4.59231 22.199 4.29967C21.9152 4.00703 21.5591 3.79448 21.1668 3.6835C19.7335 3.3335 14.0001 3.3335 14.0001 3.3335C14.0001 3.3335 8.26682 3.3335 6.83348 3.71683C6.44119 3.82782 6.08513 4.04036 5.80127 4.333C5.51741 4.62564 5.31581 4.988 5.21682 5.3835C4.9545 6.83813 4.82618 8.31375 4.83348 9.79183C4.82413 11.281 4.95246 12.7679 5.21682 14.2335C5.32595 14.6167 5.53207 14.9653 5.81527 15.2456C6.09847 15.5258 6.44917 15.7283 6.83348 15.8335C8.26682 16.2168 14.0001 16.2168 14.0001 16.2168C14.0001 16.2168 19.7335 16.2168 21.1668 15.8335C21.5591 15.7225 21.9152 15.51 22.199 15.2173C22.4829 14.9247 22.6845 14.5623 22.7835 14.1668C23.0438 12.7232 23.1721 11.2588 23.1668 9.79183C23.1762 8.30262 23.0478 6.81574 22.7835 5.35016V5.35016Z" stroke="#828282" stroke-width="2" stroke-linecap="round" stroke-linejoin="round"/>
<path d="M12.125 12.5169L16.9167 9.79189L12.125 7.06689V12.5169Z" stroke="#828282" stroke-width="2" stroke-linecap="round" stroke-linejoin="round"/>
</g>
<defs>
<filter id="filter0_d_59_2316" x="0" y="0" width="28" height="28" filterUnits="userSpaceOnUse" color-interpolation-filters="sRGB">
<feFlood flood-opacity="0" result="BackgroundImageFix"/>
<feColorMatrix in="SourceAlpha" type="matrix" values="0 0 0 0 0 0 0 0 0 0 0 0 0 0 0 0 0 0 127 0" result="hardAlpha"/>
<feOffset dy="4"/>
<feGaussianBlur stdDeviation="2"/>
<feComposite in2="hardAlpha" operator="out"/>
<feColorMatrix type="matrix" values="0 0 0 0 0 0 0 0 0 0 0 0 0 0 0 0 0 0 0.25 0"/>
<feBlend mode="normal" in2="BackgroundImageFix" result="effect1_dropShadow_59_2316"/>
<feBlend mode="normal" in="SourceGraphic" in2="effect1_dropShadow_59_2316" result="shape"/>
</filter>
<clipPath id="clip0_59_2316">
<rect width="20" height="20" fill="white" transform="translate(4)"/>
</clipPath>
</defs>
</svg>
