<svg width="0" height="0" class="hidden">
  <symbol fill="none" xmlns="http://www.w3.org/2000/svg" viewBox="0 0 63 63" id="camera">
    <g clip-path="url(#clip0_59_327)">
      <path d="M62.5693 27.5132L24.1787 5.34955C23.0764 4.71529 21.7676 4.54392 20.5392 4.87302C19.3107 5.20211 18.2628 6.00481 17.6252 7.10518L13.2054 14.7602L10.2631 19.8558C9.62847 20.9585 9.45705 22.2679 9.78645 23.4968C10.1158 24.7257 10.9191 25.7738 12.0202 26.4112L25.1828 34.0101L23.1358 37.5007C22.8635 37.9627 22.4756 38.3459 22.0102 38.6125C21.5449 38.8791 21.0182 39.0199 20.4819 39.0211H12.7969V33.164C12.7969 32.9356 12.7061 32.7165 12.5446 32.555C12.3831 32.3935 12.164 32.3027 11.9355 32.3027H7.25977V31.1914C7.25859 30.1801 6.85634 29.2105 6.14124 28.4954C5.42615 27.7803 4.45661 27.3781 3.44531 27.3769H0.861328C0.748199 27.3768 0.636166 27.3991 0.531636 27.4423C0.427105 27.4856 0.332128 27.549 0.252133 27.629C0.172138 27.709 0.108696 27.804 0.0654331 27.9085C0.0221702 28.0131 -6.45601e-05 28.1251 1.40799e-07 28.2382V57.4333C-6.45601e-05 57.5465 0.0221702 57.6585 0.0654331 57.763C0.108696 57.8675 0.172138 57.9625 0.252133 58.0425C0.332128 58.1225 0.427105 58.186 0.531636 58.2292C0.636166 58.2725 0.748199 58.2947 0.861328 58.2947H3.44531C4.45661 58.2935 5.42615 57.8912 6.14124 57.1761C6.85634 56.461 7.25859 55.4915 7.25977 54.4802V51.7441H11.9355C12.164 51.7441 12.3831 51.6534 12.5446 51.4918C12.7061 51.3303 12.7969 51.1112 12.7969 50.8828V46.65H20.4819C22.3478 46.646 24.1805 46.1563 25.7997 45.229C27.4188 44.3017 28.7687 42.9688 29.7163 41.3614L31.7899 37.8256L39.0049 41.9909C39.7313 42.4124 40.5561 42.6348 41.3959 42.6357C41.8181 42.6355 42.2384 42.5799 42.6461 42.4703C43.4295 42.2619 44.1469 41.8572 44.7305 41.2945C45.6742 41.7323 46.7018 41.9597 47.7422 41.9609C48.3798 41.9605 49.0145 41.8764 49.6302 41.7109C51.2006 41.2935 52.5835 40.3567 53.5534 39.0531L55.3174 40.0714C55.4154 40.1281 55.5236 40.1648 55.6358 40.1796C55.748 40.1944 55.862 40.187 55.9713 40.1577C56.0806 40.1284 56.183 40.0778 56.2728 40.0089C56.3625 39.9399 56.4378 39.854 56.4943 39.7559L62.8829 28.691C62.9396 28.5931 62.9765 28.485 62.9915 28.3728C63.0064 28.2606 62.9991 28.1466 62.97 28.0372C62.9409 27.9278 62.8905 27.8253 62.8218 27.7354C62.753 27.6455 62.6673 27.57 62.5693 27.5132ZM5.53711 54.4802C5.53659 55.0348 5.31604 55.5666 4.92386 55.9587C4.53169 56.3509 3.99993 56.5715 3.44531 56.572H1.72266V29.0996H3.44531C3.99993 29.1001 4.53169 29.3206 4.92386 29.7128C5.31604 30.105 5.53659 30.6367 5.53711 31.1914V54.4802ZM11.0742 50.0215H7.25977V34.0254H11.0742V50.0215ZM28.2299 40.4898C27.4349 41.8386 26.3024 42.9571 24.9439 43.7353C23.5853 44.5135 22.0475 44.9245 20.4819 44.9278H12.7969V40.7442H20.4819C21.3184 40.7424 22.1401 40.5228 22.8659 40.107C23.5918 39.6912 24.1969 39.0935 24.6217 38.3729L26.6766 34.8724L30.3 36.9642L28.2299 40.4898ZM39.8672 40.4991L12.8815 24.9194C12.1756 24.5109 11.6606 23.839 11.4495 23.0511C11.2383 22.2633 11.3484 21.4239 11.7554 20.7171L14.2656 16.3677L38.9965 30.646L46.5787 35.0235L44.068 39.375L44.0646 39.3804C43.9991 39.4915 43.9266 39.5984 43.8475 39.7003V39.7037C43.3933 40.2964 42.7392 40.7038 42.007 40.8501C41.2747 40.9964 40.5143 40.8717 39.8672 40.4991ZM49.1877 40.0468C48.0595 40.3518 46.8634 40.2889 45.7734 39.8671L48.0734 35.8839L52.0567 38.1834C51.323 39.0944 50.3175 39.7472 49.1868 40.0468H49.1877ZM55.4361 38.147L49.866 34.931L48.1852 33.9609L29.1685 22.9822L15.1279 14.8758L19.1171 7.96651C19.5258 7.26075 20.1977 6.74593 20.9855 6.535C21.7734 6.32407 22.6127 6.43425 23.3194 6.84137L60.9618 28.5749L55.4361 38.147Z" fill="#CF3535"></path>
      <path d="M51.7554 33.4652C52.257 33.7566 52.8266 33.9103 53.4067 33.9107C53.6979 33.9104 53.9878 33.872 54.269 33.7965C55.0093 33.5982 55.6579 33.1494 56.1043 32.5266C56.5507 31.9037 56.7674 31.1453 56.7174 30.3806C56.6673 29.6159 56.3537 28.8922 55.8299 28.3328C55.3061 27.7734 54.6046 27.4129 53.8448 27.3128C53.085 27.2127 52.314 27.3791 51.6632 27.7837C51.0124 28.1883 50.522 28.806 50.2755 29.5317C50.0291 30.2573 50.0419 31.046 50.3118 31.7632C50.5816 32.4805 51.0918 33.082 51.7554 33.4652ZM52.0355 29.8019C52.1397 29.6212 52.2786 29.463 52.4443 29.3363C52.6099 29.2096 52.799 29.1169 53.0006 29.0636C53.1355 29.0275 53.2745 29.0092 53.4141 29.009C53.7644 29.009 54.1048 29.1247 54.3827 29.3379C54.6606 29.5512 54.8603 29.8502 54.9509 30.1886C55.0416 30.527 55.018 30.8858 54.8839 31.2094C54.7498 31.533 54.5127 31.8033 54.2093 31.9784C53.9059 32.1535 53.5532 32.2236 53.2059 32.1778C52.8586 32.132 52.5362 31.973 52.2885 31.7252C52.0408 31.4775 51.8819 31.155 51.8362 30.8077C51.7905 30.4604 51.8608 30.1077 52.036 29.8044L52.0355 29.8019Z" fill="#CF3535"></path>
      <path d="M22.3945 24.7422L15.3365 20.6664C15.2385 20.6089 15.1301 20.5714 15.0176 20.556C14.905 20.5406 14.7905 20.5477 14.6807 20.5767C14.5709 20.6057 14.4679 20.6562 14.3777 20.7252C14.2874 20.7942 14.2118 20.8804 14.155 20.9788C14.0982 21.0771 14.0614 21.1858 14.0467 21.2984C14.0321 21.411 14.0399 21.5255 14.0696 21.6351C14.0994 21.7447 14.1506 21.8474 14.2202 21.9372C14.2897 22.0269 14.3764 22.102 14.4752 22.1582L21.5351 26.2335C21.7321 26.3365 21.9613 26.3594 22.1748 26.2972C22.3883 26.2351 22.5695 26.0929 22.6805 25.9003C22.7915 25.7076 22.8237 25.4795 22.7704 25.2637C22.7171 25.0478 22.5824 24.861 22.3945 24.7422Z" fill="#CF3535"></path>
    </g>
    <defs>
      <clipPath id="clip0_59_327">
        <rect width="63" height="63" fill="white"></rect>
      </clipPath>
    </defs>
  </symbol>
  <symbol fill="none" xmlns="http://www.w3.org/2000/svg" viewBox="0 0 47 43" id="camera-2">
    <path d="M31.7978 12.9069C34.4932 12.9069 36.686 15.555 36.686 18.8099C36.686 22.0651 34.4932 24.7132 31.7978 24.7132C29.1028 24.7132 26.91 22.0651 26.91 18.8099C26.91 15.555 29.1028 12.9069 31.7978 12.9069ZM31.7978 23.3483C33.7408 23.3483 35.3211 21.3123 35.3211 18.8099C35.3211 16.3075 33.7408 14.2718 31.7978 14.2718C29.8553 14.2718 28.275 16.3075 28.275 18.8099C28.275 21.3123 29.8553 23.3483 31.7978 23.3483Z" fill="#CF3535"></path>
    <path d="M13.9034 36.0141C14.0385 35.4109 14.4003 34.8966 14.9221 34.5657C15.4439 34.2347 16.0635 34.1267 16.6663 34.2617C17.9115 34.5401 18.6974 35.7795 18.4191 37.0247C18.1784 38.0999 17.2205 38.8332 16.1616 38.8332C15.9949 38.8332 15.8253 38.8151 15.6561 38.7771C14.411 38.4984 13.6251 37.2593 13.9034 36.0141ZM15.954 37.4452C16.4648 37.5593 16.9727 37.2369 17.0872 36.7265C17.2013 36.216 16.8789 35.7077 16.3685 35.5936C16.2988 35.578 16.2295 35.5705 16.1612 35.5705C15.7269 35.5705 15.3341 35.8712 15.2356 36.312C15.1212 36.8224 15.4436 37.3307 15.954 37.4452Z" fill="#CF3535"></path>
    <path d="M4.31084 31.5813H10.2693C10.6461 31.5813 10.9518 31.887 10.9518 32.2638C10.9518 32.6409 10.6461 32.9462 10.2693 32.9462H4.31084C2.68642 32.9462 1.36485 34.2682 1.36485 35.8926C1.36485 37.517 2.68642 38.8386 4.31084 38.8386H12.0164C11.5571 37.9108 11.4288 36.8626 11.6581 35.8386L13.2651 28.6566C11.2248 27.999 9.42688 26.5715 8.20021 24.5682H6.25517C3.43394 24.5682 1.13878 22.273 1.13878 19.4518V11.704C1.13878 5.2504 6.38918 0 12.8428 0H34.8858C37.0744 0 39.2089 0.60818 41.0586 1.75843C41.3785 1.95748 41.4862 2.38438 41.2776 2.69824C40.9641 3.17135 40.4501 2.98723 40.3378 2.91756C38.7048 1.90167 36.8195 1.36494 34.8858 1.36494C30.282 1.36494 26.372 4.38984 25.0373 8.55611H31.7977C36.892 8.55611 41.0366 13.156 41.0366 18.8099C41.0366 20.3813 40.716 21.8707 40.1444 23.2033H41.134C43.3897 23.2033 45.2249 21.3681 45.2249 19.112V11.704C45.2249 9.00931 44.1941 6.45823 42.3223 4.52101C42.0603 4.2498 42.0678 3.81757 42.3386 3.55595C42.6098 3.29398 43.0421 3.30145 43.3037 3.5723C45.4229 5.7658 46.5898 8.6535 46.5898 11.704V19.112C46.5898 22.1206 44.1422 24.5682 41.134 24.5682H39.4381C37.7739 27.2796 34.9704 29.0636 31.798 29.0636H27.0481L24.8706 38.7949C24.6054 39.9792 23.8952 40.9891 22.8705 41.6392C22.1336 42.1066 21.1014 42.514 19.445 42.2364L15.0999 41.2642H15.0996C14.3225 41.09 13.6216 40.7235 13.0468 40.2035H4.31084C1.93393 40.2035 -9.15527e-05 38.2695 -9.15527e-05 35.8922C-9.15527e-05 33.5153 1.93393 31.5813 4.31084 31.5813ZM29.404 1.36494H12.8428C7.14202 1.36494 2.50372 6.00325 2.50372 11.704V19.4518C2.50372 21.5202 4.18679 23.2033 6.25517 23.2033H19.4304C21.4991 23.2033 23.1818 21.5202 23.1818 19.4518V11.704C23.1818 7.22956 25.7056 3.33379 29.404 1.36494ZM24.701 9.92105C24.4608 10.6934 24.5468 12.4501 24.5468 12.4501C25.2776 11.4225 26.174 10.5662 27.1842 9.92105H24.701ZM39.6717 18.8099C39.6717 13.9085 36.1395 9.92105 31.7977 9.92105C28.6377 9.92105 25.7937 12.0424 24.5525 15.3257L24.5468 15.3236V19.4518C24.5468 20.0806 24.432 20.6827 24.2237 21.2397C25.1813 25.0527 28.2684 27.6987 31.7977 27.6987C36.1395 27.6987 39.6717 23.7112 39.6717 18.8099ZM23.2881 22.8073C22.3494 23.885 20.9688 24.5682 19.4304 24.5682H9.84951C11.3389 26.5431 13.5238 27.6987 15.8456 27.6987H27.1885C25.4663 26.6 24.0819 24.8966 23.2881 22.8073ZM19.7428 40.9045C21.4533 41.2869 23.1559 40.2071 23.5387 38.497L25.6494 29.0636H22.4852L20.5252 37.8227C20.2639 38.9914 19.568 39.9899 18.5645 40.6407L19.7428 40.9045ZM15.3978 39.9323C17.8856 40.5664 19.0081 38.353 19.1933 37.5245L21.0864 29.0636H15.8456C15.4234 29.0636 15.0057 29.0309 14.5937 28.9687L12.9899 36.1364C12.8047 36.965 12.9409 39.3056 15.3978 39.9323Z" fill="#CF3535"></path>
    <path d="M33.2697 21.0926C33.7058 20.4837 33.9561 19.6516 33.9561 18.8099C33.9561 17.8395 33.6251 16.894 33.0713 16.2802C32.819 16.0004 32.3874 15.978 32.1073 16.2307C31.8276 16.4835 31.8056 16.915 32.0579 17.1947C32.3156 17.4802 32.5911 18.0546 32.5911 18.8099C32.5911 19.373 32.434 19.9154 32.1599 20.2978C31.9406 20.6042 31.9989 21.0486 32.3174 21.2501C32.7816 21.5437 33.1364 21.2785 33.2697 21.0926Z" fill="#CF3535"></path>
  </symbol>
</svg>